<svg width="87" height="34" viewBox="0 0 87 34" fill="none" xmlns="http://www.w3.org/2000/svg">
<rect width="87" height="34" rx="10" fill="#002F49"/>
<path d="M36.3472 22H34.4429V18.0391H30.7295V22H28.8252V12.7578H30.7295V16.5029H34.4429V12.7578H36.3472V22ZM37.6104 18.5024C37.6104 17.8211 37.7415 17.2139 38.0039 16.6807C38.2663 16.1475 38.6429 15.7349 39.1338 15.4429C39.6289 15.1509 40.2023 15.0049 40.854 15.0049C41.7808 15.0049 42.5361 15.2884 43.1201 15.8555C43.7083 16.4225 44.0363 17.1927 44.104 18.166L44.1167 18.6357C44.1167 19.6895 43.8226 20.5358 43.2344 21.1748C42.6462 21.8096 41.8569 22.127 40.8667 22.127C39.8765 22.127 39.0851 21.8096 38.4927 21.1748C37.9045 20.54 37.6104 19.6768 37.6104 18.585V18.5024ZM39.4448 18.6357C39.4448 19.2874 39.5675 19.7868 39.813 20.1338C40.0584 20.4766 40.4097 20.6479 40.8667 20.6479C41.311 20.6479 41.658 20.4787 41.9077 20.1401C42.1574 19.7974 42.2822 19.2515 42.2822 18.5024C42.2822 17.8634 42.1574 17.3683 41.9077 17.0171C41.658 16.6659 41.3068 16.4902 40.854 16.4902C40.4054 16.4902 40.0584 16.6659 39.813 17.0171C39.5675 17.3641 39.4448 17.9036 39.4448 18.6357ZM46.9668 15.1318L47.0239 15.8999C47.5106 15.3032 48.1686 15.0049 48.998 15.0049C49.8825 15.0049 50.4897 15.354 50.8198 16.0522C51.3022 15.354 51.9899 15.0049 52.8828 15.0049C53.6276 15.0049 54.182 15.2228 54.5459 15.6587C54.9098 16.0903 55.0918 16.742 55.0918 17.6138V22H53.251V17.6201C53.251 17.2308 53.1748 16.9473 53.0225 16.7695C52.8701 16.5876 52.6014 16.4966 52.2163 16.4966C51.6662 16.4966 51.2853 16.759 51.0737 17.2837L51.0801 22H49.2456V17.6265C49.2456 17.2287 49.1673 16.9409 49.0107 16.7632C48.8542 16.5854 48.5876 16.4966 48.2109 16.4966C47.6904 16.4966 47.3138 16.7124 47.0811 17.144V22H45.2466V15.1318H46.9668ZM59.6685 22.127C58.6613 22.127 57.8403 21.818 57.2056 21.2002C56.575 20.5824 56.2598 19.7593 56.2598 18.731V18.5532C56.2598 17.8634 56.3931 17.2477 56.6597 16.7061C56.9263 16.1602 57.3029 15.7412 57.7896 15.4492C58.2804 15.153 58.839 15.0049 59.4653 15.0049C60.4048 15.0049 61.1432 15.3011 61.6807 15.8936C62.2223 16.486 62.4932 17.326 62.4932 18.4136V19.1626H58.1196C58.1789 19.6112 58.3566 19.9709 58.6528 20.2417C58.9533 20.5125 59.332 20.6479 59.7891 20.6479C60.4958 20.6479 61.048 20.3919 61.4458 19.8799L62.3472 20.8892C62.0721 21.2785 61.6997 21.5832 61.23 21.8032C60.7603 22.019 60.2397 22.127 59.6685 22.127ZM59.459 16.4902C59.0951 16.4902 58.7988 16.613 58.5703 16.8584C58.346 17.1038 58.2021 17.4551 58.1387 17.9121H60.6904V17.7661C60.682 17.3599 60.5719 17.0467 60.3604 16.8267C60.1488 16.6024 59.8483 16.4902 59.459 16.4902Z" fill="white"/>
</svg>
