<svg width="87" height="34" viewBox="0 0 87 34" fill="none" xmlns="http://www.w3.org/2000/svg">
<rect width="87" height="34" rx="10" fill="#002F49"/>
<path d="M19.417 17.5884C19.417 18.4982 19.2562 19.2959 18.9346 19.9814C18.613 20.667 18.1517 21.196 17.5508 21.5684C16.9541 21.9408 16.2686 22.127 15.4941 22.127C14.7282 22.127 14.0448 21.9429 13.4438 21.5747C12.8429 21.2065 12.3774 20.6818 12.0474 20.0005C11.7173 19.3149 11.5501 18.5278 11.5459 17.6392V17.1821C11.5459 16.2723 11.7088 15.4725 12.0347 14.7827C12.3647 14.0887 12.8281 13.5576 13.4248 13.1895C14.0257 12.8171 14.7113 12.6309 15.4814 12.6309C16.2516 12.6309 16.9351 12.8171 17.5317 13.1895C18.1326 13.5576 18.596 14.0887 18.9219 14.7827C19.252 15.4725 19.417 16.2702 19.417 17.1758V17.5884ZM17.4873 17.1694C17.4873 16.2004 17.3138 15.464 16.9668 14.9604C16.6198 14.4569 16.1247 14.2051 15.4814 14.2051C14.8424 14.2051 14.3494 14.4548 14.0024 14.9541C13.6554 15.4492 13.4798 16.1771 13.4756 17.1377V17.5884C13.4756 18.5321 13.6491 19.2642 13.9961 19.7847C14.3431 20.3052 14.8424 20.5654 15.4941 20.5654C16.1331 20.5654 16.624 20.3158 16.9668 19.8164C17.3096 19.3128 17.4831 18.5807 17.4873 17.6201V17.1694ZM24.5396 16.8521C24.2899 16.8182 24.0698 16.8013 23.8794 16.8013C23.1854 16.8013 22.7305 17.0361 22.5146 17.5059V22H20.6802V15.1318H22.4131L22.4639 15.9507C22.832 15.3201 23.342 15.0049 23.9937 15.0049C24.1968 15.0049 24.3872 15.0324 24.5649 15.0874L24.5396 16.8521ZM25.0347 18.5151C25.0347 17.4614 25.2843 16.613 25.7837 15.9697C26.2873 15.3265 26.9644 15.0049 27.8149 15.0049C28.5682 15.0049 29.1543 15.263 29.5732 15.7793L29.6494 15.1318H31.3125V21.7715C31.3125 22.3724 31.175 22.895 30.8999 23.3394C30.6291 23.7837 30.2461 24.1222 29.751 24.355C29.2559 24.5877 28.6761 24.7041 28.0117 24.7041C27.5081 24.7041 27.0173 24.6025 26.5391 24.3994C26.0609 24.2005 25.6991 23.9424 25.4536 23.625L26.2661 22.5078C26.7231 23.0199 27.2775 23.2759 27.9292 23.2759C28.4159 23.2759 28.7946 23.1447 29.0654 22.8823C29.3363 22.6242 29.4717 22.256 29.4717 21.7778V21.4097C29.0485 21.8879 28.492 22.127 27.8022 22.127C26.9771 22.127 26.3084 21.8053 25.7964 21.1621C25.2886 20.5146 25.0347 19.6577 25.0347 18.5913V18.5151ZM26.8691 18.6484C26.8691 19.2705 26.994 19.7593 27.2437 20.1147C27.4933 20.466 27.8361 20.6416 28.272 20.6416C28.8306 20.6416 29.2305 20.4321 29.4717 20.0132V17.125C29.2262 16.7061 28.8306 16.4966 28.2847 16.4966C27.8446 16.4966 27.4976 16.6764 27.2437 17.0361C26.994 17.3958 26.8691 17.9333 26.8691 18.6484ZM36.708 22C36.6234 21.835 36.562 21.6297 36.5239 21.3843C36.0796 21.8794 35.502 22.127 34.791 22.127C34.1182 22.127 33.5596 21.9323 33.1152 21.543C32.6751 21.1536 32.4551 20.6628 32.4551 20.0703C32.4551 19.3424 32.7238 18.7839 33.2612 18.3945C33.8029 18.0052 34.5837 17.8084 35.6035 17.8042H36.4478V17.4106C36.4478 17.0933 36.3652 16.8394 36.2002 16.6489C36.0394 16.4585 35.7834 16.3633 35.4321 16.3633C35.1232 16.3633 34.8799 16.4373 34.7021 16.5854C34.5286 16.7336 34.4419 16.9367 34.4419 17.1948H32.6074C32.6074 16.797 32.7301 16.4289 32.9756 16.0903C33.221 15.7518 33.568 15.4873 34.0166 15.2969C34.4652 15.1022 34.9688 15.0049 35.5273 15.0049C36.3737 15.0049 37.0444 15.2186 37.5396 15.646C38.0389 16.0692 38.2886 16.6659 38.2886 17.436V20.4131C38.2928 21.0648 38.3838 21.5578 38.5615 21.8921V22H36.708ZM35.1909 20.7241C35.4618 20.7241 35.7114 20.6649 35.9399 20.5464C36.1685 20.4237 36.3377 20.2607 36.4478 20.0576V18.877H35.7622C34.8439 18.877 34.3551 19.1943 34.2959 19.8291L34.2896 19.937C34.2896 20.1655 34.37 20.3538 34.5308 20.502C34.6916 20.6501 34.9116 20.7241 35.1909 20.7241ZM41.3862 15.1318L41.4434 15.9253C41.9342 15.3117 42.5923 15.0049 43.4175 15.0049C44.1453 15.0049 44.687 15.2186 45.0425 15.646C45.3979 16.0734 45.5799 16.7124 45.5884 17.563V22H43.7539V17.6074C43.7539 17.2181 43.6693 16.9367 43.5 16.7632C43.3307 16.5854 43.0493 16.4966 42.6558 16.4966C42.1395 16.4966 41.7523 16.7166 41.4941 17.1567V22H39.6597V15.1318H41.3862ZM48.9209 22H47.0801V15.1318H48.9209V22ZM46.9722 13.3545C46.9722 13.0794 47.0632 12.853 47.2451 12.6753C47.4313 12.4976 47.6831 12.4087 48.0005 12.4087C48.3136 12.4087 48.5633 12.4976 48.7495 12.6753C48.9357 12.853 49.0288 13.0794 49.0288 13.3545C49.0288 13.6338 48.9336 13.8623 48.7432 14.04C48.557 14.2178 48.3094 14.3066 48.0005 14.3066C47.6916 14.3066 47.4419 14.2178 47.2515 14.04C47.0653 13.8623 46.9722 13.6338 46.9722 13.3545ZM54.1577 20.1021C54.1577 19.8778 54.0456 19.7021 53.8213 19.5752C53.6012 19.444 53.2458 19.3276 52.7549 19.2261C51.1214 18.8833 50.3047 18.1893 50.3047 17.144C50.3047 16.5347 50.5565 16.0269 51.0601 15.6206C51.5679 15.2101 52.2301 15.0049 53.0469 15.0049C53.9186 15.0049 54.6147 15.2101 55.1353 15.6206C55.66 16.0311 55.9224 16.5643 55.9224 17.2202H54.0879C54.0879 16.9578 54.0033 16.742 53.834 16.5728C53.6647 16.3993 53.4002 16.3125 53.0405 16.3125C52.7316 16.3125 52.4925 16.3823 52.3232 16.522C52.154 16.6616 52.0693 16.8394 52.0693 17.0552C52.0693 17.2583 52.1646 17.4233 52.355 17.5503C52.5496 17.673 52.8755 17.7809 53.3325 17.874C53.7896 17.9629 54.1746 18.0645 54.4878 18.1787C55.4569 18.5342 55.9414 19.1499 55.9414 20.0259C55.9414 20.6522 55.6727 21.16 55.1353 21.5493C54.5978 21.9344 53.9038 22.127 53.0532 22.127C52.4777 22.127 51.9657 22.0254 51.5171 21.8223C51.0728 21.6149 50.7236 21.3335 50.4697 20.978C50.2158 20.6183 50.0889 20.2311 50.0889 19.8164H51.8281C51.8451 20.1423 51.9657 20.3919 52.1899 20.5654C52.4142 20.7389 52.7147 20.8257 53.0913 20.8257C53.4425 20.8257 53.707 20.7601 53.8848 20.6289C54.0667 20.4935 54.1577 20.3179 54.1577 20.1021ZM61.1084 22C61.0238 21.835 60.9624 21.6297 60.9243 21.3843C60.48 21.8794 59.9023 22.127 59.1914 22.127C58.5186 22.127 57.96 21.9323 57.5156 21.543C57.0755 21.1536 56.8555 20.6628 56.8555 20.0703C56.8555 19.3424 57.1242 18.7839 57.6616 18.3945C58.2033 18.0052 58.984 17.8084 60.0039 17.8042H60.8481V17.4106C60.8481 17.0933 60.7656 16.8394 60.6006 16.6489C60.4398 16.4585 60.1838 16.3633 59.8325 16.3633C59.5236 16.3633 59.2803 16.4373 59.1025 16.5854C58.929 16.7336 58.8423 16.9367 58.8423 17.1948H57.0078C57.0078 16.797 57.1305 16.4289 57.376 16.0903C57.6214 15.7518 57.9684 15.4873 58.417 15.2969C58.8656 15.1022 59.3691 15.0049 59.9277 15.0049C60.7741 15.0049 61.4448 15.2186 61.9399 15.646C62.4393 16.0692 62.689 16.6659 62.689 17.436V20.4131C62.6932 21.0648 62.7842 21.5578 62.9619 21.8921V22H61.1084ZM59.5913 20.7241C59.8621 20.7241 60.1118 20.6649 60.3403 20.5464C60.5688 20.4237 60.7381 20.2607 60.8481 20.0576V18.877H60.1626C59.2443 18.877 58.7555 19.1943 58.6963 19.8291L58.6899 19.937C58.6899 20.1655 58.7703 20.3538 58.9312 20.502C59.092 20.6501 59.312 20.7241 59.5913 20.7241ZM67.8179 20.1021C67.8179 19.8778 67.7057 19.7021 67.4814 19.5752C67.2614 19.444 66.9059 19.3276 66.415 19.2261C64.7816 18.8833 63.9648 18.1893 63.9648 17.144C63.9648 16.5347 64.2166 16.0269 64.7202 15.6206C65.228 15.2101 65.8903 15.0049 66.707 15.0049C67.5788 15.0049 68.2749 15.2101 68.7954 15.6206C69.3201 16.0311 69.5825 16.5643 69.5825 17.2202H67.748C67.748 16.9578 67.6634 16.742 67.4941 16.5728C67.3249 16.3993 67.0604 16.3125 66.7007 16.3125C66.3918 16.3125 66.1527 16.3823 65.9834 16.522C65.8141 16.6616 65.7295 16.8394 65.7295 17.0552C65.7295 17.2583 65.8247 17.4233 66.0151 17.5503C66.2098 17.673 66.5356 17.7809 66.9927 17.874C67.4497 17.9629 67.8348 18.0645 68.1479 18.1787C69.117 18.5342 69.6016 19.1499 69.6016 20.0259C69.6016 20.6522 69.3328 21.16 68.7954 21.5493C68.258 21.9344 67.564 22.127 66.7134 22.127C66.1379 22.127 65.6258 22.0254 65.1772 21.8223C64.7329 21.6149 64.3838 21.3335 64.1299 20.978C63.876 20.6183 63.749 20.2311 63.749 19.8164H65.4883C65.5052 20.1423 65.6258 20.3919 65.8501 20.5654C66.0744 20.7389 66.3748 20.8257 66.7515 20.8257C67.1027 20.8257 67.3672 20.7601 67.5449 20.6289C67.7269 20.4935 67.8179 20.3179 67.8179 20.1021ZM72.7246 22H70.8838V15.1318H72.7246V22ZM70.7759 13.3545C70.7759 13.0794 70.8669 12.853 71.0488 12.6753C71.235 12.4976 71.4868 12.4087 71.8042 12.4087C72.1174 12.4087 72.367 12.4976 72.5532 12.6753C72.7394 12.853 72.8325 13.0794 72.8325 13.3545C72.8325 13.6338 72.7373 13.8623 72.5469 14.04C72.3607 14.2178 72.1131 14.3066 71.8042 14.3066C71.4953 14.3066 71.2456 14.2178 71.0552 14.04C70.869 13.8623 70.7759 13.6338 70.7759 13.3545Z" fill="white"/>
</svg>
