<svg width="54" height="34" viewBox="0 0 54 34" fill="none" xmlns="http://www.w3.org/2000/svg">
<rect width="54" height="34" rx="10" fill="#002F49"/>
<path d="M19.6177 19.5752C19.6177 19.2155 19.4907 18.9404 19.2368 18.75C18.9829 18.5553 18.5259 18.3522 17.8657 18.1406C17.2056 17.9248 16.6829 17.7132 16.2979 17.5059C15.2484 16.9388 14.7236 16.175 14.7236 15.2144C14.7236 14.715 14.8633 14.2707 15.1426 13.8813C15.4261 13.4878 15.8302 13.181 16.355 12.9609C16.884 12.7409 17.4764 12.6309 18.1323 12.6309C18.7925 12.6309 19.3807 12.7515 19.897 12.9927C20.4132 13.2297 20.8132 13.5661 21.0967 14.002C21.3844 14.4378 21.5283 14.9329 21.5283 15.4873H19.624C19.624 15.0641 19.4907 14.7362 19.2241 14.5034C18.9575 14.2664 18.583 14.1479 18.1006 14.1479C17.6351 14.1479 17.2733 14.2474 17.0151 14.4463C16.757 14.641 16.6279 14.8991 16.6279 15.2207C16.6279 15.5212 16.7782 15.7729 17.0786 15.9761C17.3833 16.1792 17.8298 16.3696 18.418 16.5474C19.5013 16.8732 20.2905 17.2773 20.7856 17.7598C21.2808 18.2422 21.5283 18.8431 21.5283 19.5625C21.5283 20.3623 21.2257 20.9907 20.6206 21.4478C20.0155 21.9006 19.2008 22.127 18.1768 22.127C17.4658 22.127 16.8184 21.9979 16.2344 21.7397C15.6504 21.4774 15.2039 21.1198 14.895 20.667C14.5903 20.2142 14.438 19.6895 14.438 19.0928H16.3486C16.3486 20.1126 16.958 20.6226 18.1768 20.6226C18.6296 20.6226 18.9829 20.5316 19.2368 20.3496C19.4907 20.1634 19.6177 19.9053 19.6177 19.5752ZM25.1973 19.2451L24.5371 19.9053V22H22.7026V12.25H24.5371V17.6519L24.8926 17.1948L26.6509 15.1318H28.8535L26.3716 17.9946L29.0693 22H26.9619L25.1973 19.2451ZM31.583 22H29.7422V15.1318H31.583V22ZM29.6343 13.3545C29.6343 13.0794 29.7253 12.853 29.9072 12.6753C30.0934 12.4976 30.3452 12.4087 30.6626 12.4087C30.9757 12.4087 31.2254 12.4976 31.4116 12.6753C31.5978 12.853 31.6909 13.0794 31.6909 13.3545C31.6909 13.6338 31.5957 13.8623 31.4053 14.04C31.2191 14.2178 30.9715 14.3066 30.6626 14.3066C30.3537 14.3066 30.104 14.2178 29.9136 14.04C29.7274 13.8623 29.6343 13.6338 29.6343 13.3545ZM35.0361 22H33.1953V12.25H35.0361V22ZM38.4893 22H36.6484V12.25H38.4893V22Z" fill="white"/>
</svg>
