<svg width="87" height="34" viewBox="0 0 87 34" fill="none" xmlns="http://www.w3.org/2000/svg">
<rect width="87" height="34" rx="10" fill="#002F49"/>
<path d="M13.7295 18.7437V22H11.8252V12.7578H15.4307C16.1247 12.7578 16.734 12.8848 17.2588 13.1387C17.7878 13.3926 18.194 13.7544 18.4775 14.2241C18.7611 14.6896 18.9028 15.2207 18.9028 15.8174C18.9028 16.723 18.5918 17.4382 17.9697 17.9629C17.3519 18.4834 16.495 18.7437 15.3989 18.7437H13.7295ZM13.7295 17.2012H15.4307C15.9342 17.2012 16.3172 17.0827 16.5796 16.8457C16.8462 16.6087 16.9795 16.2702 16.9795 15.8301C16.9795 15.3773 16.8462 15.0112 16.5796 14.7319C16.313 14.4526 15.9448 14.3088 15.4751 14.3003H13.7295V17.2012ZM23.1685 22.127C22.1613 22.127 21.3403 21.818 20.7056 21.2002C20.075 20.5824 19.7598 19.7593 19.7598 18.731V18.5532C19.7598 17.8634 19.8931 17.2477 20.1597 16.7061C20.4263 16.1602 20.8029 15.7412 21.2896 15.4492C21.7804 15.153 22.339 15.0049 22.9653 15.0049C23.9048 15.0049 24.6432 15.3011 25.1807 15.8936C25.7223 16.486 25.9932 17.326 25.9932 18.4136V19.1626H21.6196C21.6789 19.6112 21.8566 19.9709 22.1528 20.2417C22.4533 20.5125 22.832 20.6479 23.2891 20.6479C23.9958 20.6479 24.548 20.3919 24.9458 19.8799L25.8472 20.8892C25.5721 21.2785 25.1997 21.5832 24.73 21.8032C24.2603 22.019 23.7397 22.127 23.1685 22.127ZM22.959 16.4902C22.5951 16.4902 22.2988 16.613 22.0703 16.8584C21.846 17.1038 21.7021 17.4551 21.6387 17.9121H24.1904V17.7661C24.182 17.3599 24.0719 17.0467 23.8604 16.8267C23.6488 16.6024 23.3483 16.4902 22.959 16.4902ZM28.729 15.1318L28.7861 15.9253C29.277 15.3117 29.9351 15.0049 30.7603 15.0049C31.4881 15.0049 32.0298 15.2186 32.3853 15.646C32.7407 16.0734 32.9227 16.7124 32.9312 17.563V22H31.0967V17.6074C31.0967 17.2181 31.012 16.9367 30.8428 16.7632C30.6735 16.5854 30.3921 16.4966 29.9985 16.4966C29.4823 16.4966 29.0951 16.7166 28.8369 17.1567V22H27.0024V15.1318H28.729ZM34.042 18.5151C34.042 17.4445 34.2811 16.5918 34.7593 15.957C35.2417 15.3223 35.8997 15.0049 36.7334 15.0049C37.402 15.0049 37.9543 15.2546 38.3901 15.7539V12.25H40.231V22H38.5742L38.4854 21.27C38.0283 21.8413 37.4401 22.127 36.7207 22.127C35.9124 22.127 35.2629 21.8096 34.772 21.1748C34.2853 20.5358 34.042 19.6493 34.042 18.5151ZM35.8765 18.6484C35.8765 19.2917 35.9886 19.7847 36.2129 20.1274C36.4372 20.4702 36.763 20.6416 37.1904 20.6416C37.7575 20.6416 38.1574 20.4025 38.3901 19.9243V17.2139C38.1616 16.7357 37.766 16.4966 37.2031 16.4966C36.3187 16.4966 35.8765 17.2139 35.8765 18.6484ZM43.5889 22H41.748V15.1318H43.5889V22ZM41.6401 13.3545C41.6401 13.0794 41.7311 12.853 41.9131 12.6753C42.0993 12.4976 42.3511 12.4087 42.6685 12.4087C42.9816 12.4087 43.2313 12.4976 43.4175 12.6753C43.6037 12.853 43.6968 13.0794 43.6968 13.3545C43.6968 13.6338 43.6016 13.8623 43.4111 14.04C43.2249 14.2178 42.9774 14.3066 42.6685 14.3066C42.3595 14.3066 42.1099 14.2178 41.9194 14.04C41.7332 13.8623 41.6401 13.6338 41.6401 13.3545ZM44.8203 18.5151C44.8203 17.4445 45.0594 16.5918 45.5376 15.957C46.02 15.3223 46.6781 15.0049 47.5117 15.0049C48.1803 15.0049 48.7326 15.2546 49.1685 15.7539V12.25H51.0093V22H49.3525L49.2637 21.27C48.8066 21.8413 48.2184 22.127 47.499 22.127C46.6908 22.127 46.0412 21.8096 45.5503 21.1748C45.0636 20.5358 44.8203 19.6493 44.8203 18.5151ZM46.6548 18.6484C46.6548 19.2917 46.7669 19.7847 46.9912 20.1274C47.2155 20.4702 47.5413 20.6416 47.9688 20.6416C48.5358 20.6416 48.9357 20.4025 49.1685 19.9243V17.2139C48.9399 16.7357 48.5443 16.4966 47.9814 16.4966C47.097 16.4966 46.6548 17.2139 46.6548 18.6484ZM54.3672 22H52.5264V15.1318H54.3672V22ZM52.4185 13.3545C52.4185 13.0794 52.5094 12.853 52.6914 12.6753C52.8776 12.4976 53.1294 12.4087 53.4468 12.4087C53.7599 12.4087 54.0096 12.4976 54.1958 12.6753C54.382 12.853 54.4751 13.0794 54.4751 13.3545C54.4751 13.6338 54.3799 13.8623 54.1895 14.04C54.0033 14.2178 53.7557 14.3066 53.4468 14.3066C53.1379 14.3066 52.8882 14.2178 52.6978 14.04C52.5116 13.8623 52.4185 13.6338 52.4185 13.3545ZM58.3789 19.2451L57.7188 19.9053V22H55.8843V12.25H57.7188V17.6519L58.0742 17.1948L59.8325 15.1318H62.0352L59.5532 17.9946L62.251 22H60.1436L58.3789 19.2451ZM66.8086 22C66.724 21.835 66.6626 21.6297 66.6245 21.3843C66.1802 21.8794 65.6025 22.127 64.8916 22.127C64.2188 22.127 63.6602 21.9323 63.2158 21.543C62.7757 21.1536 62.5557 20.6628 62.5557 20.0703C62.5557 19.3424 62.8244 18.7839 63.3618 18.3945C63.9035 18.0052 64.6842 17.8084 65.7041 17.8042H66.5483V17.4106C66.5483 17.0933 66.4658 16.8394 66.3008 16.6489C66.14 16.4585 65.884 16.3633 65.5327 16.3633C65.2238 16.3633 64.9805 16.4373 64.8027 16.5854C64.6292 16.7336 64.5425 16.9367 64.5425 17.1948H62.708C62.708 16.797 62.8307 16.4289 63.0762 16.0903C63.3216 15.7518 63.6686 15.4873 64.1172 15.2969C64.5658 15.1022 65.0693 15.0049 65.6279 15.0049C66.4743 15.0049 67.145 15.2186 67.6401 15.646C68.1395 16.0692 68.3892 16.6659 68.3892 17.436V20.4131C68.3934 21.0648 68.4844 21.5578 68.6621 21.8921V22H66.8086ZM65.2915 20.7241C65.5623 20.7241 65.812 20.6649 66.0405 20.5464C66.269 20.4237 66.4383 20.2607 66.5483 20.0576V18.877H65.8628C64.9445 18.877 64.4557 19.1943 64.3965 19.8291L64.3901 19.937C64.3901 20.1655 64.4705 20.3538 64.6313 20.502C64.7922 20.6501 65.0122 20.7241 65.2915 20.7241ZM71.4868 15.1318L71.5439 15.9253C72.0348 15.3117 72.6929 15.0049 73.5181 15.0049C74.2459 15.0049 74.7876 15.2186 75.1431 15.646C75.4985 16.0734 75.6805 16.7124 75.689 17.563V22H73.8545V17.6074C73.8545 17.2181 73.7699 16.9367 73.6006 16.7632C73.4313 16.5854 73.1499 16.4966 72.7563 16.4966C72.2401 16.4966 71.8529 16.7166 71.5947 17.1567V22H69.7603V15.1318H71.4868Z" fill="white"/>
</svg>
