<svg width="59" height="34" viewBox="0 0 59 34" fill="none" xmlns="http://www.w3.org/2000/svg">
<rect width="59" height="34" rx="10" fill="#002F49"/>
<path d="M12.7197 18.293L11.7295 19.3594V22H9.8252V12.7578H11.7295V16.9473L12.5674 15.7983L14.9224 12.7578H17.2646L13.9829 16.8647L17.3599 22H15.0938L12.7197 18.293ZM17.4932 18.5024C17.4932 17.8211 17.6243 17.2139 17.8867 16.6807C18.1491 16.1475 18.5257 15.7349 19.0166 15.4429C19.5117 15.1509 20.0851 15.0049 20.7368 15.0049C21.6636 15.0049 22.4189 15.2884 23.0029 15.8555C23.5911 16.4225 23.9191 17.1927 23.9868 18.166L23.9995 18.6357C23.9995 19.6895 23.7054 20.5358 23.1172 21.1748C22.529 21.8096 21.7397 22.127 20.7495 22.127C19.7593 22.127 18.9679 21.8096 18.3755 21.1748C17.7873 20.54 17.4932 19.6768 17.4932 18.585V18.5024ZM19.3276 18.6357C19.3276 19.2874 19.4504 19.7868 19.6958 20.1338C19.9412 20.4766 20.2925 20.6479 20.7495 20.6479C21.1938 20.6479 21.5409 20.4787 21.7905 20.1401C22.0402 19.7974 22.165 19.2515 22.165 18.5024C22.165 17.8634 22.0402 17.3683 21.7905 17.0171C21.5409 16.6659 21.1896 16.4902 20.7368 16.4902C20.2882 16.4902 19.9412 16.6659 19.6958 17.0171C19.4504 17.3641 19.3276 17.9036 19.3276 18.6357ZM26.8179 15.1318L26.875 15.9253C27.3659 15.3117 28.0239 15.0049 28.8491 15.0049C29.577 15.0049 30.1187 15.2186 30.4741 15.646C30.8296 16.0734 31.0116 16.7124 31.02 17.563V22H29.1855V17.6074C29.1855 17.2181 29.1009 16.9367 28.9316 16.7632C28.7624 16.5854 28.481 16.4966 28.0874 16.4966C27.5711 16.4966 27.1839 16.7166 26.9258 17.1567V22H25.0913V15.1318H26.8179ZM34.6128 13.4434V15.1318H35.7871V16.4775H34.6128V19.9053C34.6128 20.1592 34.6615 20.3411 34.7588 20.4512C34.8561 20.5612 35.0423 20.6162 35.3174 20.6162C35.5205 20.6162 35.7004 20.6014 35.8569 20.5718V21.9619C35.4972 22.0719 35.127 22.127 34.7461 22.127C33.4596 22.127 32.8037 21.4774 32.7783 20.1782V16.4775H31.7754V15.1318H32.7783V13.4434H34.6128ZM40.7891 22C40.7044 21.835 40.6431 21.6297 40.605 21.3843C40.1606 21.8794 39.583 22.127 38.8721 22.127C38.1992 22.127 37.6406 21.9323 37.1963 21.543C36.7562 21.1536 36.5361 20.6628 36.5361 20.0703C36.5361 19.3424 36.8049 18.7839 37.3423 18.3945C37.884 18.0052 38.6647 17.8084 39.6846 17.8042H40.5288V17.4106C40.5288 17.0933 40.4463 16.8394 40.2812 16.6489C40.1204 16.4585 39.8644 16.3633 39.5132 16.3633C39.2043 16.3633 38.9609 16.4373 38.7832 16.5854C38.6097 16.7336 38.5229 16.9367 38.5229 17.1948H36.6885C36.6885 16.797 36.8112 16.4289 37.0566 16.0903C37.3021 15.7518 37.6491 15.4873 38.0977 15.2969C38.5462 15.1022 39.0498 15.0049 39.6084 15.0049C40.4548 15.0049 41.1255 15.2186 41.6206 15.646C42.12 16.0692 42.3696 16.6659 42.3696 17.436V20.4131C42.3739 21.0648 42.4648 21.5578 42.6426 21.8921V22H40.7891ZM39.272 20.7241C39.5428 20.7241 39.7925 20.6649 40.021 20.5464C40.2495 20.4237 40.4188 20.2607 40.5288 20.0576V18.877H39.8433C38.925 18.877 38.4362 19.1943 38.377 19.8291L38.3706 19.937C38.3706 20.1655 38.451 20.3538 38.6118 20.502C38.7726 20.6501 38.9927 20.7241 39.272 20.7241ZM46.2734 19.2451L45.6133 19.9053V22H43.7788V12.25H45.6133V17.6519L45.9688 17.1948L47.7271 15.1318H49.9297L47.4478 17.9946L50.1455 22H48.0381L46.2734 19.2451Z" fill="white"/>
</svg>
