<svg width="87" height="34" viewBox="0 0 87 34" fill="none" xmlns="http://www.w3.org/2000/svg">
<rect width="87" height="34" rx="10" fill="#002F49"/>
<path d="M3.56836 12.0469L6.125 19.2656L8.66797 12.0469H11.3613V22H9.30371V19.2793L9.50879 14.583L6.82227 22H5.41406L2.73438 14.5898L2.93945 19.2793V22H0.888672V12.0469H3.56836ZM15.7842 19.2041L17.1514 14.6035H19.2705L16.2969 23.1484L16.1328 23.5381C15.6908 24.5042 14.9616 24.9873 13.9453 24.9873C13.6582 24.9873 13.3665 24.944 13.0703 24.8574V23.3604L13.3711 23.3672C13.7448 23.3672 14.0228 23.3102 14.2051 23.1963C14.3919 23.0824 14.5378 22.8932 14.6426 22.6289L14.875 22.0205L12.2842 14.6035H14.4102L15.7842 19.2041ZM22.2305 18.4932V22H20.1797V12.0469H24.0625C24.8099 12.0469 25.4661 12.1836 26.0312 12.457C26.6009 12.7305 27.0384 13.1201 27.3438 13.626C27.6491 14.1273 27.8018 14.6992 27.8018 15.3418C27.8018 16.3171 27.4668 17.0872 26.7969 17.6523C26.1315 18.2129 25.2087 18.4932 24.0283 18.4932H22.2305ZM22.2305 16.832H24.0625C24.6048 16.832 25.0173 16.7044 25.2998 16.4492C25.5869 16.194 25.7305 15.8294 25.7305 15.3555C25.7305 14.8678 25.5869 14.4736 25.2998 14.1729C25.0127 13.8721 24.6162 13.7171 24.1104 13.708H22.2305V16.832ZM33.2432 16.4561C32.9743 16.4196 32.7373 16.4014 32.5322 16.4014C31.7848 16.4014 31.2949 16.6543 31.0625 17.1602V22H29.0869V14.6035H30.9531L31.0078 15.4854C31.4043 14.8063 31.9535 14.4668 32.6553 14.4668C32.874 14.4668 33.0791 14.4964 33.2705 14.5557L33.2432 16.4561ZM33.6465 18.2334C33.6465 17.4997 33.7878 16.8457 34.0703 16.2715C34.3529 15.6973 34.7585 15.2529 35.2871 14.9385C35.8203 14.624 36.4378 14.4668 37.1396 14.4668C38.1377 14.4668 38.9512 14.7721 39.5801 15.3828C40.2135 15.9935 40.5667 16.8229 40.6396 17.8711L40.6533 18.377C40.6533 19.5117 40.3366 20.4232 39.7031 21.1113C39.0697 21.7949 38.2197 22.1367 37.1533 22.1367C36.0869 22.1367 35.2347 21.7949 34.5967 21.1113C33.9632 20.4277 33.6465 19.498 33.6465 18.3223V18.2334ZM35.6221 18.377C35.6221 19.0788 35.7542 19.6165 36.0186 19.9902C36.2829 20.3594 36.6611 20.5439 37.1533 20.5439C37.6318 20.5439 38.0055 20.3617 38.2744 19.9971C38.5433 19.6279 38.6777 19.04 38.6777 18.2334C38.6777 17.5452 38.5433 17.012 38.2744 16.6338C38.0055 16.2555 37.6273 16.0664 37.1396 16.0664C36.6566 16.0664 36.2829 16.2555 36.0186 16.6338C35.7542 17.0075 35.6221 17.5885 35.6221 18.377ZM42.3486 22V16.0527H41.248V14.6035H42.3486V14.2617C42.3577 13.332 42.6426 12.6165 43.2031 12.1152C43.7682 11.6094 44.5635 11.3564 45.5889 11.3564C46.2041 11.3564 46.9515 11.4909 47.8311 11.7598L47.5439 13.3936C47.0973 13.2614 46.751 13.1771 46.5049 13.1406C46.2588 13.0996 45.9945 13.0791 45.7119 13.0791C44.7913 13.0791 44.3311 13.487 44.3311 14.3027V14.6035H45.7871V16.0527H44.3311V22H42.3486ZM48.7539 22H46.7715V14.6035H48.7539V22ZM52.4727 22H50.4902V11.5H52.4727V22ZM57.5107 22.1367C56.4261 22.1367 55.542 21.804 54.8584 21.1387C54.1794 20.4733 53.8398 19.5869 53.8398 18.4795V18.2881C53.8398 17.5452 53.9834 16.8822 54.2705 16.2988C54.5576 15.7109 54.9632 15.2598 55.4873 14.9453C56.016 14.6263 56.6175 14.4668 57.292 14.4668C58.3037 14.4668 59.099 14.7858 59.6777 15.4238C60.2611 16.0618 60.5527 16.9665 60.5527 18.1377V18.9443H55.8428C55.9066 19.4274 56.098 19.8148 56.417 20.1064C56.7406 20.3981 57.1484 20.5439 57.6406 20.5439C58.4017 20.5439 58.9964 20.2682 59.4248 19.7168L60.3955 20.8037C60.0993 21.223 59.6982 21.5511 59.1924 21.7881C58.6865 22.0205 58.126 22.1367 57.5107 22.1367ZM57.2852 16.0664C56.8932 16.0664 56.5742 16.1986 56.3281 16.4629C56.0866 16.7272 55.9316 17.1055 55.8633 17.5977H58.6113V17.4404C58.6022 17.0029 58.4837 16.6657 58.2559 16.4287C58.028 16.1872 57.7044 16.0664 57.2852 16.0664Z" fill="#F8D941"/>
</svg>
